<svg width="15" height="15" viewBox="0 0 15 15" fill="none" xmlns="http://www.w3.org/2000/svg">
<path d="M7.5 0C6.04184 0.00184311 4.64389 0.623288 3.61282 1.72801C2.58174 2.83274 2.00173 4.33054 2.00001 5.89286C1.99826 7.16958 2.3875 8.41167 3.108 9.42857C3.108 9.42857 3.258 9.64018 3.2825 9.67071L7.5 15L11.7195 9.66804C11.7415 9.63964 11.892 9.42857 11.892 9.42857L11.8925 9.42696C12.6126 8.41051 13.0017 7.169 13 5.89286C12.9983 4.33054 12.4183 2.83274 11.3872 1.72801C10.3561 0.623288 8.95816 0.00184311 7.5 0V0ZM7.5 8.03571C7.10444 8.03571 6.71776 7.91004 6.38886 7.67458C6.05996 7.43912 5.80362 7.10445 5.65224 6.71289C5.50087 6.32134 5.46126 5.89048 5.53843 5.47481C5.6156 5.05913 5.80608 4.67731 6.08579 4.37763C6.36549 4.07794 6.72186 3.87386 7.10982 3.79117C7.49778 3.70849 7.89991 3.75093 8.26537 3.91311C8.63082 4.0753 8.94317 4.34996 9.16294 4.70235C9.3827 5.05474 9.5 5.46904 9.5 5.89286C9.49934 6.46096 9.28841 7.00559 8.91348 7.4073C8.53855 7.80901 8.03023 8.03501 7.5 8.03571V8.03571Z" fill="white"/>
</svg>
