<svg width="22" height="22" viewBox="0 0 22 22" fill="none" xmlns="http://www.w3.org/2000/svg">
<path d="M11.0006 0C8.01064 0 7.63802 0.0144375 6.46789 0.0639375C5.29295 0.121688 4.4982 0.303875 3.79695 0.576125C3.06302 0.853202 2.39835 1.28701 1.84927 1.84731C1.2874 2.39511 0.853351 3.06015 0.578078 3.795C0.305828 4.49625 0.123641 5.291 0.0658906 6.46594C0.0129531 7.63675 0.00195312 8.00869 0.00195312 10.9986C0.00195312 13.9886 0.0163906 14.3612 0.0658906 15.5313C0.123641 16.7028 0.305828 17.501 0.578078 18.2022C0.855155 18.9362 1.28896 19.6009 1.84927 20.1499C2.39706 20.7118 3.06211 21.1459 3.79695 21.4211C4.4982 21.6899 5.29639 21.8756 6.46789 21.9333C7.6387 21.9862 8.01064 21.9972 11.0006 21.9972C13.9905 21.9972 14.3631 21.9828 15.5333 21.9333C16.7048 21.8756 17.503 21.6893 18.2042 21.4211C18.9381 21.144 19.6028 20.7102 20.1519 20.1499C20.7145 19.6027 21.1486 18.9375 21.4231 18.2022C21.6919 17.501 21.8775 16.7028 21.9353 15.5313C21.9882 14.3605 21.9992 13.9886 21.9992 10.9986C21.9992 8.00869 21.9848 7.63606 21.9353 6.46594C21.8775 5.29444 21.6912 4.49213 21.4231 3.795C21.146 3.06107 20.7122 2.39639 20.1519 1.84731C19.6047 1.28472 18.9395 0.850561 18.2042 0.576125C17.503 0.303875 16.7048 0.121688 15.5333 0.0639375C14.3625 0.011 13.9905 0 11.0006 0ZM11.0006 1.98C13.9369 1.98 14.2875 1.99444 15.448 2.04394C16.5185 2.09413 17.1015 2.27288 17.4885 2.42412C17.967 2.60076 18.4001 2.8819 18.7563 3.24706C19.1208 3.60169 19.4009 4.0338 19.5758 4.51137C19.727 4.89844 19.9058 5.48144 19.956 6.55187C20.0055 7.71237 20.0199 8.06369 20.0199 10.9993C20.0199 13.9349 20.0055 14.2863 19.9518 15.4468C19.8941 16.5172 19.7153 17.1002 19.5648 17.4873C19.3565 18.0036 19.1241 18.3645 18.7405 18.755C18.3831 19.1179 17.9503 19.3977 17.4727 19.5745C17.0905 19.7257 16.4992 19.9045 15.4246 19.9547C14.258 20.0042 13.9142 20.0186 10.9703 20.0186C8.02645 20.0186 7.68339 20.0042 6.51533 19.9506C5.44489 19.8928 4.85433 19.7141 4.46727 19.5635C3.94477 19.3552 3.58658 19.1228 3.20295 18.7392C2.81589 18.3521 2.56977 17.9836 2.38002 17.4714C2.22602 17.0892 2.05002 16.4979 1.99295 15.4234C1.95377 14.2704 1.9352 13.9129 1.9352 10.9828C1.9352 8.05406 1.95377 7.69588 1.99295 6.5285C2.05002 5.45394 2.22602 4.86406 2.38002 4.48044C2.56977 3.95725 2.81658 3.59975 3.20295 3.21269C3.58589 2.82975 3.94477 2.58225 4.46727 2.38838C4.85433 2.23781 5.43045 2.05906 6.50502 2.00544C7.6717 1.9635 8.01545 1.94838 10.9552 1.94838L11.0006 1.98ZM11.0006 5.35356C10.259 5.35329 9.52464 5.49916 8.83946 5.78282C8.15428 6.06648 7.53171 6.48239 7.00734 7.00676C6.48297 7.53114 6.06706 8.1537 5.7834 8.83888C5.49973 9.52406 5.35387 10.2584 5.35414 11C5.35387 11.7416 5.49973 12.4759 5.7834 13.1611C6.06706 13.8463 6.48297 14.4689 7.00734 14.9932C7.53171 15.5176 8.15428 15.9335 8.83946 16.2172C9.52464 16.5008 10.259 16.6467 11.0006 16.6464C11.7422 16.6467 12.4765 16.5008 13.1617 16.2172C13.8469 15.9335 14.4694 15.5176 14.9938 14.9932C15.5182 14.4689 15.9341 13.8463 16.2178 13.1611C16.5014 12.4759 16.6473 11.7416 16.647 11C16.6473 10.2584 16.5014 9.52406 16.2178 8.83888C15.9341 8.1537 15.5182 7.53114 14.9938 7.00676C14.4694 6.48239 13.8469 6.06648 13.1617 5.78282C12.4765 5.49916 11.7422 5.35329 11.0006 5.35356ZM11.0006 14.6664C8.97383 14.6664 7.33414 13.0267 7.33414 11C7.33414 8.97325 8.97383 7.33356 11.0006 7.33356C13.0273 7.33356 14.667 8.97325 14.667 11C14.667 13.0267 13.0273 14.6664 11.0006 14.6664ZM18.1946 5.12806C18.1942 5.47846 18.0548 5.81438 17.8069 6.06201C17.559 6.30965 17.2229 6.44875 16.8725 6.44875C16.6993 6.44875 16.5277 6.41463 16.3676 6.34832C16.2076 6.28202 16.0621 6.18484 15.9396 6.06233C15.8171 5.93982 15.7199 5.79438 15.6536 5.63432C15.5873 5.47425 15.5532 5.30269 15.5532 5.12944C15.5532 4.95618 15.5873 4.78463 15.6536 4.62456C15.7199 4.46449 15.8171 4.31905 15.9396 4.19654C16.0621 4.07403 16.2076 3.97685 16.3676 3.91055C16.5277 3.84425 16.6993 3.81012 16.8725 3.81012C17.5992 3.81012 18.1946 4.40137 18.1946 5.12806Z" fill="white"/>
</svg>
