<svg width="37" height="37" viewBox="0 0 37 37" fill="none" xmlns="http://www.w3.org/2000/svg">
<path d="M20.6737 18.5L27.3028 11.8862C27.5931 11.5959 27.7562 11.2022 27.7562 10.7917C27.7562 10.3811 27.5931 9.98738 27.3028 9.69708C27.0125 9.40678 26.6188 9.24369 26.2082 9.24369C25.7977 9.24369 25.404 9.40678 25.1137 9.69708L18.4999 16.3262L11.8862 9.69708C11.5959 9.40678 11.2021 9.24369 10.7916 9.24369C10.381 9.24369 9.98729 9.40678 9.69699 9.69708C9.40669 9.98738 9.2436 10.3811 9.2436 10.7917C9.2436 11.2022 9.40669 11.5959 9.69699 11.8862L16.3262 18.5L9.69699 25.1138C9.55249 25.2571 9.4378 25.4276 9.35953 25.6154C9.28126 25.8033 9.24097 26.0048 9.24097 26.2083C9.24097 26.4119 9.28126 26.6134 9.35953 26.8012C9.4378 26.9891 9.55249 27.1596 9.69699 27.3029C9.84031 27.4474 10.0108 27.5621 10.1987 27.6404C10.3865 27.7186 10.5881 27.7589 10.7916 27.7589C10.9951 27.7589 11.1966 27.7186 11.3845 27.6404C11.5723 27.5621 11.7428 27.4474 11.8862 27.3029L18.4999 20.6737L25.1137 27.3029C25.257 27.4474 25.4275 27.5621 25.6154 27.6404C25.8032 27.7186 26.0047 27.7589 26.2082 27.7589C26.4118 27.7589 26.6133 27.7186 26.8011 27.6404C26.989 27.5621 27.1595 27.4474 27.3028 27.3029C27.4473 27.1596 27.562 26.9891 27.6403 26.8012C27.7185 26.6134 27.7588 26.4119 27.7588 26.2083C27.7588 26.0048 27.7185 25.8033 27.6403 25.6154C27.562 25.4276 27.4473 25.2571 27.3028 25.1138L20.6737 18.5Z" fill="black"/>
</svg>
