<svg width="338" height="500" viewBox="0 0 338 500" fill="none" xmlns="http://www.w3.org/2000/svg">
<g clip-path="url(#clip0)">
<path d="M244.008 339.952C193.915 426.413 83.1059 456.023 -3.49145 406.09C-90.0876 356.157 -119.684 245.588 -69.5914 159.127C-19.4989 72.6647 91.3112 43.0553 177.908 92.9881C264.505 142.921 294.101 253.49 244.008 339.952Z" stroke="white" stroke-opacity="0.1" stroke-width="5"/>
<path d="M199.488 314.749C163.412 377.019 83.6458 398.362 21.3279 362.429C-40.9906 326.496 -62.2698 246.888 -26.1929 184.618C9.88397 122.347 89.6503 101.004 151.968 136.938C214.286 172.871 235.565 252.479 199.488 314.749Z" stroke="white" stroke-opacity="0.1" stroke-width="5"/>
<path d="M-11.4757 113.431L-5.1533 109.462L5.86342 126.927C7.10433 128.893 8.35909 129.479 9.62815 128.682C10.8971 127.885 10.9113 126.503 9.67041 124.537L-1.34632 107.072L4.9764 103.102L14.9879 118.973C17.0417 122.228 17.8006 124.987 17.2656 127.248C16.7583 129.302 15.1108 131.205 12.3236 132.954C9.53648 134.704 7.11598 135.356 5.06244 134.91C2.76472 134.427 0.589504 132.557 -1.4643 129.302L-11.4757 113.431Z" fill="#FAF8F8" fill-opacity="0.07"/>
<path d="M132.684 101.938C134.991 97.0572 137.314 93.9271 139.653 92.5466C142.005 91.1426 144.887 91.2435 148.302 92.8499C151.717 94.4566 153.629 96.6112 154.039 99.3143C154.46 101.993 153.517 105.772 151.211 110.653C148.904 115.533 146.575 118.676 144.224 120.08C141.884 121.46 139.007 121.347 135.592 119.74C132.177 118.134 130.259 115.992 129.838 113.313C129.429 110.61 130.377 106.818 132.684 101.938ZM139.658 105.218C137.934 108.867 136.942 111.28 136.681 112.456C136.401 113.801 136.758 114.707 137.75 115.174C138.743 115.641 139.671 115.339 140.532 114.268C141.277 113.319 142.511 111.02 144.236 107.372C145.96 103.724 146.953 101.311 147.213 100.134C147.493 98.7895 147.137 97.8836 146.144 97.4166C145.152 96.9495 144.224 97.2513 143.363 98.3229C142.618 99.2719 141.383 101.571 139.658 105.218Z" fill="#FAF8F8" fill-opacity="0.07"/>
<path d="M241.508 256.11C246.892 256.615 250.633 257.73 252.73 259.455C254.853 261.183 255.738 263.923 255.386 267.673C255.032 271.422 253.652 273.949 251.243 275.252C248.861 276.559 244.978 276.96 239.593 276.455C234.208 275.951 230.454 274.834 228.33 273.106C226.234 271.38 225.363 268.643 225.715 264.893C226.067 261.143 227.435 258.615 229.817 257.308C232.226 256.005 236.122 255.605 241.508 256.11ZM240.787 263.769C236.762 263.392 234.149 263.282 232.951 263.438C231.588 263.632 230.856 264.275 230.754 265.365C230.65 266.455 231.251 267.222 232.553 267.666C233.702 268.042 236.288 268.419 240.313 268.795C244.339 269.173 246.951 269.283 248.149 269.127C249.512 268.933 250.244 268.291 250.347 267.201C250.45 266.11 249.85 265.343 248.547 264.899C247.399 264.522 244.812 264.147 240.787 263.769Z" fill="#FAF8F8" fill-opacity="0.07"/>
<path d="M195.621 132.484L190.183 128.105L190.611 127.575C191.906 125.974 192.002 124.73 190.897 123.84C190.314 123.37 189.706 123.207 189.073 123.35C188.459 123.473 187.932 123.804 187.495 124.345C186.571 125.488 186.628 127.097 187.669 129.171C189.386 132.578 190.31 134.541 190.441 135.058C191.095 137.61 190.48 140.05 188.597 142.378C184.897 146.951 180.412 147.115 175.14 142.871C172.64 140.858 171.164 138.897 170.712 136.988C170.244 134.93 170.91 132.788 172.71 130.564L173.34 129.785L178.965 134.314L178.537 134.845C177.141 136.569 177.079 137.944 178.349 138.967C178.933 139.437 179.551 139.608 180.204 139.482C180.873 139.335 181.461 138.95 181.965 138.326C182.907 137.162 182.872 135.589 181.86 133.607C180.206 130.25 179.328 128.359 179.225 127.932C178.583 125.494 179.179 123.141 181.012 120.876C184.762 116.24 189.075 115.885 193.95 119.811C196.472 121.841 197.859 123.868 198.114 125.892C198.385 127.896 197.555 130.093 195.621 132.484Z" fill="#FAF8F8" fill-opacity="0.07"/>
<path d="M187.91 154.141L203.826 138.515L199.883 134.517L204.405 130.077L217.533 143.386L213.01 147.826L209.066 143.828L193.149 159.453L187.91 154.141Z" fill="#FAF8F8" fill-opacity="0.07"/>
<path d="M227.103 243.85L255.742 242.384L256.125 249.828L227.487 251.294L227.103 243.85Z" fill="#FAF8F8" fill-opacity="0.07"/>
<path d="M225.395 228.011L247.554 225.251L246.857 219.685L253.155 218.901L255.472 237.429L249.176 238.213L248.48 232.646L226.321 235.406L225.395 228.011Z" fill="#FAF8F8" fill-opacity="0.07"/>
<path d="M236.389 169.799L239.529 176.561L220.761 185.234C218.647 186.211 217.905 187.378 218.536 188.735C219.166 190.093 220.538 190.283 222.651 189.306L241.42 180.634L244.56 187.396L227.504 195.277C224.005 196.894 221.166 197.293 218.987 196.476C217.009 195.711 215.328 193.838 213.943 190.857C212.56 187.876 212.221 185.398 212.927 183.423C213.699 181.211 215.836 179.297 219.334 177.68L236.389 169.799Z" fill="#FAF8F8" fill-opacity="0.07"/>
<path d="M196.814 164.024L220.475 147.86L227.078 157.481C230.043 161.801 229.427 165.394 225.229 168.262C221.894 170.541 219.093 170.479 216.828 168.077L216.762 168.122C217.612 169.645 217.792 170.995 217.302 172.172C216.834 173.334 215.771 174.48 214.114 175.612L212.093 176.993C210.215 178.276 209.19 179.122 209.016 179.532C208.915 179.763 208.831 180.16 208.764 180.724L208.432 180.95L203.939 174.404C204.506 173.434 205.872 172.21 208.038 170.731L209.628 169.644C210.954 168.739 211.743 167.973 211.995 167.347C212.263 166.744 212.139 166.068 211.624 165.318L210.512 163.698L201.035 170.173L196.814 164.024ZM220.255 157.043L214.688 160.846L215.528 162.069C216.707 163.788 218.236 164.007 220.114 162.724C221.948 161.471 222.268 159.974 221.072 158.233L220.255 157.043Z" fill="#FAF8F8" fill-opacity="0.07"/>
<path d="M199.248 334.001L221.453 352.102L214.059 361.132C210.738 365.186 207.108 365.607 203.168 362.396C200.038 359.844 199.309 357.145 200.982 354.301L200.919 354.25C199.694 355.493 198.446 356.045 197.176 355.907C195.927 355.786 194.524 355.091 192.97 353.824L191.073 352.277C189.311 350.841 188.208 350.097 187.765 350.046C187.514 350.014 187.108 350.046 186.547 350.14L186.236 349.886L191.268 343.743C192.361 344.013 193.923 344.977 195.955 346.632L197.448 347.85C198.692 348.864 199.65 349.403 200.323 349.469C200.978 349.555 201.594 349.246 202.17 348.543L203.416 347.023L194.521 339.771L199.248 334.001ZM212.559 354.477L207.335 350.217L206.394 351.365C205.073 352.978 205.294 354.504 207.055 355.941C208.776 357.343 210.306 357.228 211.644 355.593L212.559 354.477Z" fill="#FAF8F8" fill-opacity="0.07"/>
<path d="M240.047 209.424L241.604 209.03C243.135 208.642 244.159 208.216 244.678 207.755C245.201 207.319 245.372 206.739 245.187 206.013C244.917 204.952 244.094 204.43 242.717 204.449C241.51 204.479 238.947 204.99 235.027 205.983C231.109 206.975 228.611 207.745 227.535 208.294C226.317 208.933 225.842 209.783 226.112 210.845C226.396 211.958 227.504 212.407 229.439 212.193C229.952 212.146 231.298 211.847 233.478 211.295L235.257 218.284L233.194 218.807C226.758 220.437 222.762 218.197 221.207 212.086C220.207 208.151 220.644 205.202 222.52 203.239C224.196 201.464 227.732 199.893 233.13 198.526C238.477 197.172 242.395 196.938 244.885 197.823C247.408 198.727 249.144 201.043 250.093 204.772C251.614 210.752 249.442 214.485 243.578 215.971L241.826 216.414L240.047 209.424Z" fill="#FAF8F8" fill-opacity="0.07"/>
<path d="M220.63 336.002L221.972 336.883C223.292 337.749 224.297 338.217 224.988 338.287C225.665 338.379 226.209 338.112 226.621 337.488C227.224 336.572 227.055 335.614 226.113 334.613C225.276 333.744 223.168 332.201 219.791 329.984C216.413 327.767 214.158 326.447 213.027 326.025C211.732 325.558 210.782 325.783 210.18 326.698C209.547 327.657 209.962 328.778 211.425 330.058C211.806 330.403 212.936 331.193 214.815 332.426L210.843 338.451L209.064 337.285C203.516 333.644 202.479 329.19 205.951 323.923C208.188 320.531 210.666 318.864 213.384 318.921C215.828 318.958 219.375 320.503 224.028 323.557C228.637 326.581 231.453 329.308 232.478 331.739C233.511 334.208 232.968 337.048 230.849 340.262C227.449 345.417 223.222 346.336 218.167 343.019L216.657 342.027L220.63 336.002Z" fill="#FAF8F8" fill-opacity="0.07"/>
<path d="M84.8527 110.419L87.0203 81.8923L98.6748 82.7739C103.908 83.1697 106.331 85.8977 105.947 90.9585C105.642 94.9805 103.841 97.1213 100.545 97.3811L100.539 97.4612C102.262 97.7521 103.43 98.4565 104.044 99.5747C104.659 100.666 104.891 102.21 104.739 104.208L104.554 106.645C104.382 108.909 104.402 110.237 104.614 110.628C104.731 110.851 104.989 111.165 105.388 111.571L105.358 111.97L97.428 111.37C97.0246 110.322 96.9219 108.492 97.1199 105.882L97.2656 103.964C97.387 102.366 97.2826 101.273 96.9509 100.686C96.6466 100.1 96.0405 99.773 95.1321 99.704L93.17 99.5557L92.3017 110.982L84.8527 110.419ZM94.0628 87.8096L93.5527 94.5217L95.0347 94.634C97.1173 94.7914 98.2444 93.738 98.4165 91.4741C98.5842 89.2633 97.6133 88.0778 95.504 87.9184L94.0628 87.8096Z" fill="#FAF8F8" fill-opacity="0.07"/>
<path d="M122.139 96.214L122.49 94.65C122.834 93.1117 122.917 92.0083 122.738 91.3385C122.585 90.6748 122.143 90.2617 121.411 90.0981C120.339 89.8591 119.501 90.3564 118.895 91.5897C118.377 92.6787 117.677 95.1913 116.794 99.1276C115.912 103.064 115.473 105.634 115.477 106.84C115.498 108.213 116.045 109.019 117.116 109.258C118.239 109.509 119.143 108.725 119.824 106.906C120.014 106.429 120.354 105.095 120.845 102.905L127.9 104.479L127.435 106.551C125.986 113.016 122.178 115.561 116.011 114.185C112.04 113.299 109.599 111.577 108.691 109.021C107.861 106.728 108.054 102.871 109.269 97.4484C110.473 92.0784 112.032 88.4848 113.949 86.6679C115.897 84.831 118.753 84.3322 122.515 85.1713C128.552 86.518 130.909 90.1371 129.588 96.0283L129.194 97.7878L122.139 96.214Z" fill="#FAF8F8" fill-opacity="0.07"/>
<path d="M65.4474 112.383L62.1942 83.9594L79.0739 82.037L79.7665 88.0881L70.3097 89.1655L70.8651 94.022L79.7241 93.0132L80.3893 98.8254L71.5302 99.8341L72.1768 105.487L81.9938 104.369L82.6864 110.42L65.4474 112.383Z" fill="#FAF8F8" fill-opacity="0.07"/>
<path d="M185 350.501L204.527 371.453L192.086 382.993L187.929 378.533L194.9 372.067L191.563 368.487L185.034 374.544L181.04 370.26L187.57 364.204L183.687 360.036L176.451 366.748L172.294 362.289L185 350.501Z" fill="#FAF8F8" fill-opacity="0.07"/>
<path d="M168.614 375.182L176.21 393.662L170.368 397.031L157.902 381.356L157.833 381.396L166.022 399.536L159.762 403.145L149.657 375.929L156.75 371.839L168.552 387.248L168.621 387.208L161.132 369.313L168.226 365.224L186.816 387.547L180.557 391.156L168.682 375.141L168.614 375.182Z" fill="#FAF8F8" fill-opacity="0.07"/>
<path d="M45.5982 92.9324L49.7399 110.319L51.1857 109.976C52.4095 109.686 53.1559 108.946 53.4227 107.757C53.6217 106.858 53.5483 105.627 53.2023 104.061C53.776 106.698 53.4683 105.523 52.2793 100.532C51.0909 95.5423 50.8357 94.3539 51.5131 96.9667C51.1151 95.4134 50.6254 94.28 50.0429 93.5673C49.2676 92.6256 48.2685 92.2996 47.0438 92.5898L45.5982 92.9324ZM43.7163 117.265L37.0858 89.4322L47.636 86.9307C51.4133 86.0352 54.2746 86.8396 56.2199 89.3438C57.4984 91.0169 58.6866 94.154 59.7822 98.7539C60.8777 103.354 61.2318 106.688 60.844 108.757C60.2364 111.866 58.0434 113.868 54.2659 114.764L43.7163 117.265Z" fill="#FAF8F8" fill-opacity="0.07"/>
<path d="M21.772 126.338L10.9422 99.8483L18.6775 96.7011L29.8139 111.209L29.8885 111.179L23.2146 94.8548L29.6858 92.2215L40.515 118.712L32.9285 121.799L21.6282 107.314L21.5539 107.344L28.2426 123.706L21.772 126.338Z" fill="#FAF8F8" fill-opacity="0.07"/>
<path d="M247.021 304.285L219.481 296.314L221.808 288.309L240.123 288.603L240.145 288.527L223.173 283.615L225.12 276.919L252.662 284.889L250.379 292.74L231.981 292.589L231.958 292.665L248.968 297.588L247.021 304.285Z" fill="#FAF8F8" fill-opacity="0.07"/>
<path d="M148.461 124.747L162.971 100.071L170.177 104.288L165.392 121.928L165.461 121.968L174.403 106.762L180.43 110.289L165.92 134.965L158.853 130.829L163.52 113.075L163.451 113.034L154.488 128.275L148.461 124.747Z" fill="#FAF8F8" fill-opacity="0.07"/>
<path d="M139.029 401.106C142.872 403.319 147.702 402.147 149.82 398.488C151.937 394.829 150.539 390.07 146.697 387.857C142.855 385.644 138.024 386.816 135.907 390.475C133.79 394.133 135.187 398.893 139.029 401.106Z" fill="#FEFEFE" fill-opacity="0.05"/>
<path d="M224.446 319.076C228.288 321.289 233.119 320.117 235.237 316.459C237.354 312.8 235.956 308.04 232.114 305.827C228.272 303.614 223.441 304.786 221.323 308.445C219.206 312.103 220.604 316.863 224.446 319.076Z" fill="#FEFEFE" fill-opacity="0.05"/>
<path d="M112.273 389.059L101.372 396.24L89.5256 391.94L92.4163 403.7L84.2145 414.959L96.7553 415.873L104.135 426.433L109.491 413.535L120.513 409.789L111.806 402.25L112.273 389.059Z" fill="#FAF8F8" fill-opacity="0.07"/>
<path d="M62.7427 385.767L51.8418 392.948L39.9953 388.648L42.8869 400.408L34.6849 411.667L47.2251 412.581L54.6057 423.141L59.9618 410.243L70.9835 406.497L62.2764 398.958L62.7427 385.767Z" fill="#FAF8F8" fill-opacity="0.07"/>
<path d="M17.8877 370.026L6.98647 377.207L-4.85967 372.907L-1.96865 384.666L-10.1707 395.925L2.37004 396.839L9.75003 407.399L15.1062 394.501L26.1278 390.755L17.4211 383.217L17.8877 370.026Z" fill="#FAF8F8" fill-opacity="0.07"/>
<path d="M164.581 170.503L153.596 172.16L137.92 199.217C135.04 204.187 132.801 207.665 131.204 209.649C129.634 211.649 127.969 213.073 126.208 213.921C121.731 216.107 116.021 215.199 109.079 211.196C101.746 206.968 97.6594 202.228 96.8196 196.975C96.1301 192.815 98.0989 186.742 102.726 178.756L118.838 150.945L116.089 142.542L135.905 153.969L126.969 156.247L111.098 183.64L107.445 190.138C105.035 194.299 104.188 197.759 104.904 200.519C105.636 203.251 108.06 205.802 112.174 208.175C116.709 210.79 120.598 211.263 123.842 209.595C126.459 208.235 129.814 204.023 133.907 196.959L149.775 169.957L146.696 160.19L164.581 170.503ZM164.358 174.175L155.906 175.615L140.837 201.626C135.903 210.142 132.012 215.312 129.164 217.134C123.379 220.802 116.499 220.336 108.522 215.736C101.636 211.766 97.4532 207.062 95.9728 201.627L96.2112 201.988L97.1957 203.673C99.4732 207.669 103.313 211.224 108.715 214.339C116.441 218.793 122.97 219.317 128.303 215.912C131.168 214.061 134.897 209.171 139.492 201.242L155.022 174.435L164.238 172.932L164.358 174.175ZM136.359 157.248L129.842 159.022L111.812 190.142L110.095 193.008L108.315 199.077C108.345 200.51 108.818 202.496 109.736 205.037L109.601 205.462C107.8 203.157 106.978 200.839 107.133 198.508C107.289 196.177 108.467 193.112 110.668 189.314L128.867 157.9L136.281 156.029L136.359 157.248Z" fill="white" fill-opacity="0.1"/>
<path d="M196.552 274.815L195.63 275.345C190.571 278.276 185.847 281.401 181.461 284.72L180.524 285.465L180.149 284.857C181.964 280.242 182.416 276.013 181.505 272.173C180.593 268.332 178.473 265.451 175.141 263.531C171.587 261.481 167.722 261.32 163.548 263.048C158.32 265.174 153.037 270.844 147.698 280.059C143.104 287.989 140.876 294.993 141.014 301.071C141.181 307.164 143.713 311.623 148.611 314.447C152.529 316.707 156.403 317.207 160.23 315.95C164.102 314.681 167.67 311.746 170.932 307.146C171.723 306.038 172.539 305.726 173.379 306.21C174.47 306.839 174.49 308.061 173.439 309.876C171.87 312.585 169.628 315.036 166.714 317.23C160.552 321.872 153.399 321.846 145.254 317.149C137.976 312.952 133.668 307.078 132.331 299.527C131.008 291.948 132.864 283.817 137.895 275.132C142.538 267.119 148.654 261.686 156.242 258.835C163.831 255.984 170.928 256.463 177.534 260.272C180.668 262.08 183.792 264.905 186.904 268.749C188.535 270.769 190.036 272.174 191.407 272.965C192.891 273.82 194.454 274.183 196.099 274.05L196.552 274.815ZM180.179 275.04C178.813 271.533 176.997 269.126 174.729 267.819C167.481 263.639 159.86 268.446 151.868 282.24C148.228 288.522 146.034 294.243 145.288 299.399C144.557 304.528 145.36 308.586 147.699 311.574L147.457 311.993C144.542 309.418 143.361 305.367 143.914 299.837C144.51 294.295 146.758 288.16 150.657 281.43C159.021 266.993 167.177 262.067 175.127 266.651C177.814 268.2 179.603 270.816 180.494 274.496L180.179 275.04ZM177.195 311.707C172.736 318.374 167.732 322.53 162.187 324.174C156.685 325.808 150.855 324.849 144.698 321.298C140.024 318.603 136.504 314.655 134.14 309.455L134.334 309.12C136.558 313.532 140.203 317.198 145.269 320.119C150.811 323.314 156.358 324.148 161.912 322.619C164.622 321.872 167.006 320.657 169.064 318.976C171.12 317.294 173.317 314.761 175.651 311.375L176.293 310.461L177.195 311.707ZM198.453 278.593L197.53 279.122C191.47 282.557 186.293 285.885 181.998 289.109L181.18 287.911L182.249 287.129C185.347 285.005 187.986 283.285 190.166 281.972L196.97 277.961L197.827 277.449L198.453 278.593Z" fill="white" fill-opacity="0.1"/>
<path d="M47.5548 187.783C44.9675 188.899 42.6247 190.267 40.528 191.889C36.393 195.093 33.7716 197.008 32.6617 197.635L32.3061 197.765C32.372 197.394 32.4257 197.108 32.467 196.908C33.139 193.943 33.5068 191.826 33.5684 190.559C33.6313 189.291 33.4178 187.92 32.9278 186.446C31.6908 182.715 29.4491 179.913 26.2025 178.041C23.2076 176.315 20.2313 175.715 17.2736 176.245C14.3316 176.746 12.1324 178.254 10.6767 180.767C7.95928 185.459 9.64794 190.697 15.7421 196.483L21.8422 202.292C30.5388 210.547 32.5093 218.78 27.7529 226.99C25.0998 231.569 21.132 234.422 15.8497 235.548C10.6113 236.662 5.44543 235.751 0.350871 232.813C-2.8401 230.974 -6.12556 228.427 -9.50561 225.174L-13.7142 221.126C-15.4262 219.506 -16.9262 218.325 -18.2138 217.583C-19.9212 216.599 -21.9997 216.126 -24.4505 216.166L-24.4465 215.386C-17.9508 212.166 -12.6353 208.599 -8.50213 204.688L-7.86819 205.332C-9.82041 210.055 -10.0304 214.479 -8.49829 218.603C-6.96759 222.727 -3.82313 226.16 0.935639 228.903C4.68632 231.067 8.16866 231.92 11.3829 231.463C14.5971 231.007 17.053 229.313 18.7513 226.381C20.7095 223.003 20.7874 219.323 18.9869 215.341C17.6816 212.503 13.9887 208.436 7.90827 203.141C3.2164 199.058 0.376096 195.13 -0.611105 191.357C-1.5992 187.584 -0.854786 183.56 1.61969 179.289C4.17594 174.877 7.82825 172.215 12.5765 171.301C17.3683 170.377 22.3114 171.383 27.4062 174.322C30.6807 176.209 34.1614 178.999 37.8483 182.689C39.5682 184.425 40.9178 185.576 41.897 186.141C43.269 186.933 45.0417 187.321 47.215 187.307L47.5548 187.783ZM49.139 191.043L48.3968 191.454C46.1331 192.718 44.0862 193.997 42.2546 195.288C37.9175 198.262 35.4854 199.915 34.9589 200.244L34.5788 200.417L33.8135 199.416L34.1997 199.137C36.0799 197.762 38.6462 196.038 41.901 193.966L47.9591 190.083L48.363 189.87L49.139 191.043ZM32.0502 192.309C30.865 187.267 28.5079 183.729 24.9818 181.695C22.8541 180.469 20.7352 180.066 18.6238 180.488C16.5125 180.91 14.9064 182.07 13.8068 183.969C12.6097 186.035 12.7936 188.972 14.3588 192.78L14.5736 193.183L14.169 193.398C11.429 189.62 10.9652 186.167 12.7764 183.04C14.0384 180.862 15.85 179.54 18.2097 179.076C20.5693 178.611 23.0098 179.106 25.5282 180.558C27.9351 181.946 29.7354 183.673 30.9279 185.739C32.1649 187.794 32.6688 189.984 32.4414 192.311L32.0502 192.309ZM32.0736 214.505C34.2136 219.577 33.8357 224.611 30.9399 229.609C27.8495 234.943 23.1579 238.272 16.8641 239.597C10.5861 240.894 4.48037 239.832 -1.45329 236.411C-4.47616 234.668 -7.02731 232.787 -9.10607 230.769L-14.8774 225.262C-16.2178 223.967 -17.7848 222.803 -19.5763 221.771C-21.1706 220.85 -22.8265 220.324 -24.5422 220.192L-24.3423 218.686C-22.4989 218.856 -20.8212 219.376 -19.3093 220.247C-17.63 221.216 -15.8585 222.572 -13.9943 224.319L-8.42681 229.596C-6.20819 231.695 -3.67004 233.568 -0.816074 235.214C4.78204 238.442 10.5677 239.412 16.54 238.125C22.5578 236.827 27.0307 233.651 29.9584 228.597C32.4341 224.324 33.0904 219.711 31.9282 214.757L32.0736 214.505ZM-4.80806 209.332C-6.68412 214.955 -5.97632 220.113 -2.68287 224.805L-2.87725 225.141C-7.20946 220.631 -8.2716 215.214 -6.06279 208.888L-4.80806 209.332ZM-2.19435 192.735L-1.22804 194.354C-1.25808 196.534 0.649816 199.46 4.49765 203.131L10.2861 208.704C14.2126 212.496 16.6898 215.246 17.7153 216.955C18.7856 218.652 19.1577 220.525 18.831 222.571L18.4401 222.57C18.0217 220.392 17.2652 218.539 16.1699 217.014C15.1027 215.504 12.767 213.059 9.16301 209.676C3.92567 204.794 0.56292 201.253 -0.926043 199.054C-2.39846 196.827 -2.82109 194.72 -2.19435 192.735Z" fill="white" fill-opacity="0.1"/>
<path d="M89.9499 245.45L173.607 223.339C170.332 219.77 163.958 211.892 164.659 208.932C174.17 213.654 193.247 221.783 200.724 220.397C201.594 219.916 202.285 219.643 202.79 219.537C202.271 219.959 201.572 220.239 200.724 220.397C196.355 222.809 187.472 230.467 175.035 248.556C174.359 244.381 173.791 234.969 176.926 230.718L92.1365 253.384L108.294 316.527C109.133 317.992 113.426 321.502 123.886 323.825L134.858 361.69C129.936 361.94 118.934 359.921 114.304 349.852C113.695 354.548 110.232 365.34 101.258 370.938L91.9165 333.171C95.1489 329.285 101.59 320.826 101.494 318.078L84.0214 255.307L89.9499 245.45Z" fill="white" fill-opacity="0.1"/>
<path d="M89.9502 245.45L67.1991 162.429C71.9336 163.477 81.9548 165.051 84.1718 162.97C75.3167 157.115 58.7187 144.702 56.1785 137.558C56.1601 136.567 56.0508 135.834 55.8896 135.346C55.7837 136.004 55.891 136.747 56.1785 137.558C56.2735 142.532 54.0782 154.016 44.6161 173.768C48.5748 172.27 57.0206 168.068 59.1388 163.243L81.92 247.724L19.0739 265.255C17.3842 265.261 12.1919 263.306 4.94084 255.436L-33.387 264.842C-31.1395 269.215 -23.8825 277.704 -12.8341 276.68C-16.6007 279.547 -24.2268 287.915 -24.5904 298.452L12.8372 287.688C14.5898 282.961 18.7018 273.184 21.1325 271.898L84.0217 255.307L89.9502 245.45Z" fill="white" fill-opacity="0.1"/>
<path d="M30.08 299.657L40.5343 281.593L53.6273 289.134L52.3935 291.266L41.6968 285.105L38.4948 290.638L48.512 296.408L47.2854 298.527L37.2682 292.757L33.71 298.906L44.827 305.309L43.5932 307.441L30.08 299.657ZM48.1821 302.346L50.5561 303.451C50.14 304.416 49.9573 305.302 50.0067 306.108C50.0689 306.91 50.4079 307.73 51.0219 308.565C51.6411 309.393 52.465 310.103 53.4937 310.696C54.4077 311.222 55.2935 311.552 56.15 311.684C57.0071 311.816 57.7396 311.745 58.3484 311.471C58.9703 311.194 59.4423 310.776 59.7655 310.217C60.0936 309.65 60.2143 309.063 60.1276 308.454C60.0455 307.837 59.7085 307.167 59.1176 306.443C58.7414 305.974 57.8356 305.064 56.3997 303.711C54.9695 302.35 54.0236 301.301 53.5609 300.564C52.9573 299.614 52.6343 298.684 52.5913 297.771C52.5616 296.856 52.7862 295.983 53.2663 295.154C53.7943 294.241 54.5454 293.541 55.5203 293.051C56.5 292.553 57.6071 292.385 58.8416 292.549C60.0752 292.712 61.3026 293.145 62.5211 293.847C63.8627 294.619 64.9191 295.518 65.6881 296.541C66.4701 297.561 66.8947 298.649 66.961 299.805C67.028 300.961 66.7751 302.08 66.2028 303.163L63.8062 302.013C64.3427 300.8 64.4223 299.695 64.0432 298.7C63.6733 297.708 62.7924 296.812 61.3999 296.01C59.951 295.176 58.7384 294.833 57.7615 294.983C56.7994 295.129 56.1016 295.576 55.6688 296.324C55.2931 296.973 55.2186 297.642 55.4457 298.331C55.6644 299.015 56.6166 300.139 58.3032 301.702C60.0028 303.262 61.1202 304.414 61.6548 305.16C62.4284 306.252 62.8495 307.317 62.9192 308.353C62.994 309.382 62.751 310.381 62.19 311.351C61.6336 312.312 60.8326 313.061 59.7857 313.597C58.7448 314.126 57.5675 314.329 56.2544 314.208C54.9539 314.083 53.6571 313.649 52.3646 312.905C50.7259 311.961 49.4883 310.93 48.6525 309.813C47.8249 308.701 47.3696 307.486 47.2871 306.168C47.2178 304.847 47.516 303.573 48.1821 302.346ZM65.8532 320.262L75.0738 304.33L69.108 300.893L70.3418 298.761L84.694 307.028L83.4602 309.16L77.4701 305.71L68.2495 321.642L65.8532 320.262ZM72.9748 324.364L74.4365 321.838L76.9689 323.297L75.5072 325.823L72.9748 324.364Z" fill="white" fill-opacity="0.1"/>
<path d="M14.0084 345.921L0.202 337.968L1.15171 336.327L24.5733 320.391L29.361 312.119L22.2688 308.034L17.7505 315.841L14.6379 314.048L19.3105 305.974C19.7296 305.25 20.3014 304.79 21.0264 304.597C21.7511 304.403 22.4766 304.516 23.2025 304.934L31.5843 309.762C32.3114 310.18 32.7715 310.75 32.9653 311.474C33.1594 312.196 33.0469 312.921 32.6278 313.645L28.3661 321.009C27.8528 321.896 26.9924 322.751 25.7851 323.574L5.51588 337.392L15.5873 343.193L14.0084 345.921ZM34.487 354.433C34.0676 355.158 33.4879 355.613 32.7488 355.798C32.0092 355.983 31.2754 355.866 30.5495 355.448L21.3226 350.134C20.5967 349.715 20.1363 349.144 19.9422 348.422C19.7476 347.699 19.8607 346.975 20.2801 346.25L37.5191 316.462C37.9382 315.738 38.51 315.278 39.235 315.085C39.9597 314.891 40.6853 315.004 41.4112 315.422L50.638 320.736C51.3639 321.154 51.8325 321.729 52.0416 322.461C52.2504 323.192 52.1452 323.921 51.7261 324.645L34.487 354.433ZM31.5505 352.387L48.4813 323.131L40.4554 318.509L23.5245 347.764L31.5505 352.387ZM42.1105 362.107L38.998 360.314L52.9251 336.249L51.5694 335.468L51.6336 335.357L59.6876 325.949L62.199 327.395L42.1105 362.107ZM51.3594 367.434L48.2469 365.641L62.174 341.576L60.8183 340.795L60.8825 340.684L68.9365 331.276L71.448 332.722L51.3594 367.434Z" fill="white" fill-opacity="0.1"/>
</g>
<defs>
<clipPath id="clip0">
<rect width="366.363" height="365.928" fill="white" transform="matrix(0.866539 0.49911 -0.500891 0.865511 20.29 0)"/>
</clipPath>
</defs>
</svg>
