<svg width="42" height="31" viewBox="0 0 42 31" fill="none" xmlns="http://www.w3.org/2000/svg">
<g clip-path="url(#clip0)">
<path d="M41.0722 4.83514C40.8313 3.90058 40.3614 3.04858 39.7092 2.36397C39.0571 1.67936 38.2454 1.18603 37.3552 0.9331C34.0959 0 20.9785 0 20.9785 0C20.9785 0 7.86035 0.0282444 4.60108 0.961344C3.7108 1.21429 2.89917 1.70764 2.24702 2.39229C1.59488 3.07693 1.12496 3.92897 0.884084 4.86356C-0.101767 10.9427 -0.484197 20.2058 0.911155 26.0417C1.15206 26.9763 1.62198 27.8283 2.27413 28.5129C2.92627 29.1975 3.73789 29.6908 4.62815 29.9438C7.88742 30.8769 21.0052 30.8769 21.0052 30.8769C21.0052 30.8769 34.1228 30.8769 37.3819 29.9438C38.2722 29.6909 39.0839 29.1975 39.736 28.5129C40.3882 27.8283 40.8582 26.9763 41.0991 26.0417C42.1389 19.954 42.4593 10.6967 41.0722 4.83531V4.83514Z" fill="#E31616"/>
<path d="M16.8032 22.0548L27.6853 15.4383L16.8034 8.8219L16.8032 22.0548Z" fill="white"/>
</g>
<defs>
<clipPath id="clip0">
<rect width="42" height="31" fill="white"/>
</clipPath>
</defs>
</svg>
