<svg width="352" height="353" viewBox="0 0 352 353" fill="none" xmlns="http://www.w3.org/2000/svg">
<g clip-path="url(#clip0)">
<path d="M348.632 175.013C348.956 270.558 271.734 348.433 176.154 348.953C80.5747 349.474 2.82711 272.444 2.50341 176.899C2.17971 81.3542 79.4024 3.47945 174.982 2.95883C270.561 2.4382 348.309 79.4682 348.632 175.013Z" stroke="white" stroke-opacity="0.1" stroke-width="5"/>
<path d="M299.72 175.668C299.954 244.479 244.379 300.561 175.597 300.936C106.815 301.31 50.862 245.836 50.6289 177.024C50.3957 108.212 105.97 52.1301 174.752 51.7554C243.535 51.3808 299.487 106.856 299.72 175.668Z" stroke="white" stroke-opacity="0.1" stroke-width="5"/>
<path d="M28.4597 111.148L31.7665 104.822L49.2836 113.931C51.2564 114.957 52.5746 114.835 53.2384 113.565C53.9022 112.296 53.2476 111.148 51.2748 110.122L33.7577 101.013L37.0645 94.6865L52.983 102.964C56.2484 104.662 58.2052 106.574 58.8535 108.699C59.4251 110.64 58.982 113.005 57.5241 115.794C56.0663 118.582 54.3819 120.288 52.471 120.909C50.3411 121.618 47.6435 121.123 44.3781 119.425L28.4597 111.148Z" fill="#FAF8F8" fill-opacity="0.07"/>
<path d="M141.954 32.1532C141.506 27.011 141.915 23.306 143.181 21.0383C144.446 18.7452 146.875 17.4386 150.469 17.1186C154.064 16.7988 156.682 17.656 158.323 19.6905C159.962 21.6995 161.006 25.2751 161.455 30.4174C161.903 35.5596 161.495 39.2774 160.23 41.5705C158.964 43.8383 156.533 45.1321 152.939 45.452C149.345 45.7719 146.728 44.9273 145.088 42.9183C143.447 40.8839 142.402 37.2955 141.954 32.1532ZM149.295 31.4998C149.63 35.3437 149.974 37.8144 150.326 38.9118C150.744 40.1574 151.475 40.7337 152.52 40.6407C153.565 40.5477 154.185 39.8511 154.38 38.5511C154.537 37.4082 154.448 34.9149 154.114 31.0709C153.778 27.227 153.435 24.7563 153.082 23.6589C152.665 22.4132 151.934 21.837 150.889 21.93C149.844 22.023 149.223 22.7195 149.029 24.0196C148.871 25.1624 148.961 27.6558 149.295 31.4998Z" fill="#FAF8F8" fill-opacity="0.07"/>
<path d="M306.145 106.989C310.834 104.809 314.461 103.927 317.024 104.341C319.611 104.744 321.662 106.579 323.179 109.845C324.695 113.112 324.774 115.864 323.413 118.102C322.076 120.329 319.062 122.532 314.373 124.713C309.683 126.892 306.045 127.78 303.458 127.377C300.895 126.963 298.855 125.122 297.338 121.856C295.821 118.589 295.732 115.842 297.069 113.615C298.429 111.378 301.454 109.168 306.145 106.989ZM309.242 113.661C305.737 115.291 303.526 116.459 302.612 117.165C301.58 117.983 301.285 118.867 301.727 119.816C302.167 120.766 303.033 121.11 304.322 120.849C305.452 120.605 307.769 119.669 311.274 118.04C314.781 116.411 316.99 115.242 317.904 114.536C318.937 113.718 319.232 112.835 318.791 111.885C318.35 110.935 317.485 110.591 316.195 110.852C315.065 111.095 312.748 112.032 309.242 113.661Z" fill="#FAF8F8" fill-opacity="0.07"/>
<path d="M208.65 27.0314L202.048 26.0378L202.147 25.3933C202.444 23.4474 201.923 22.3735 200.582 22.1717C199.874 22.0651 199.293 22.2233 198.84 22.6464C198.392 23.0442 198.117 23.5717 198.017 24.2287C197.804 25.6187 198.627 26.919 200.487 28.1296C203.547 30.1156 205.257 31.2906 205.615 31.6548C207.385 33.4467 208.053 35.7579 207.621 38.5884C206.771 44.1483 203.146 46.4467 196.747 45.4835C193.711 45.0267 191.547 44.1192 190.253 42.7611C188.875 41.2868 188.392 39.1975 188.806 36.4932L188.951 35.5456L195.78 36.5735L195.682 37.218C195.36 39.3155 195.972 40.4805 197.514 40.7127C198.223 40.8193 198.816 40.663 199.295 40.2437C199.776 39.7992 200.075 39.1979 200.191 38.4397C200.407 37.0244 199.62 35.7425 197.829 34.5939C194.844 32.6193 193.207 31.4808 192.917 31.1787C191.211 29.4741 190.569 27.2444 190.991 24.4898C191.852 18.854 195.242 16.4815 201.16 17.3724C204.222 17.8331 206.345 18.8378 207.531 20.3866C208.721 21.9101 209.095 24.1251 208.65 27.0314Z" fill="#FAF8F8" fill-opacity="0.07"/>
<path d="M37.6825 244.225L40.7488 250.145L40.1692 250.445C38.4189 251.351 37.855 252.406 38.4777 253.608C38.8067 254.244 39.2752 254.619 39.8834 254.735C40.4687 254.864 41.0568 254.774 41.6478 254.468C42.8981 253.82 43.4683 252.388 43.3585 250.172C43.1724 246.529 43.1217 244.455 43.2065 243.951C43.6196 241.464 45.099 239.561 47.6448 238.241C52.6457 235.649 56.6323 237.222 59.6045 242.961C61.0143 245.682 61.5485 247.966 61.2069 249.811C60.8215 251.795 59.4127 253.417 56.9804 254.678L56.1281 255.12L52.956 248.995L53.5357 248.695C55.4223 247.718 56.0074 246.537 55.2907 245.154C54.9618 244.518 54.4873 244.132 53.8675 243.992C53.2249 243.865 52.5627 243.977 51.8808 244.331C50.6078 244.991 50.0314 246.383 50.1514 248.507C50.3023 252.083 50.3404 254.077 50.2658 254.49C49.8857 256.873 48.4568 258.707 45.9792 259.991C40.9102 262.618 37.0011 261.278 34.2521 255.971C32.8305 253.227 32.399 250.919 32.9577 249.047C33.4935 247.187 35.0685 245.58 37.6825 244.225Z" fill="#FAF8F8" fill-opacity="0.07"/>
<path d="M212.724 48.6318L218.333 28.0555L213.149 26.6555L214.743 20.8082L232 25.4683L230.406 31.3155L225.222 29.9155L219.612 50.4919L212.724 48.6318Z" fill="#FAF8F8" fill-opacity="0.07"/>
<path d="M288.34 103.811L311.281 88.7923L315.187 94.7537L292.245 109.773L288.34 103.811Z" fill="#FAF8F8" fill-opacity="0.07"/>
<path d="M279.292 91.5548L296.259 78.5928L293 74.3324L297.822 70.6486L308.668 84.8299L303.847 88.5131L300.588 84.2527L283.622 97.2147L279.292 91.5548Z" fill="#FAF8F8" fill-opacity="0.07"/>
<path d="M51.6135 228.353L31.9773 236.738L34.0807 241.672L28.5006 244.055L21.4992 227.631L27.0793 225.249L29.1827 230.183L48.8189 221.798L51.6135 228.353Z" fill="#FAF8F8" fill-opacity="0.07"/>
<path d="M43.6086 154.257L22.4341 151.65L21.7661 156.977L15.7489 156.236L17.9722 138.506L23.9895 139.246L23.3214 144.574L44.496 147.179L43.6086 154.257Z" fill="#FAF8F8" fill-opacity="0.07"/>
<path d="M260.304 38.1874L266.158 42.2575L254.841 58.4678C253.567 60.2933 253.517 61.6146 254.692 62.4316C255.867 63.2485 257.091 62.7442 258.366 60.9186L269.682 44.7084L275.535 48.7785L265.252 63.5092C263.142 66.5313 260.99 68.2294 258.796 68.6054C256.795 68.9279 254.504 68.1919 251.923 66.3973C249.344 64.6033 247.869 62.7205 247.499 60.7495C247.071 58.5504 247.912 55.94 250.021 52.9182L260.304 38.1874Z" fill="#FAF8F8" fill-opacity="0.07"/>
<path d="M224.842 52.4989L236.586 27.7447L246.677 32.5049C251.208 34.6424 252.432 37.907 250.348 42.2984C248.693 45.7885 246.35 47.0879 243.322 46.1966L243.289 46.2659C244.725 47.1135 245.525 48.1413 245.688 49.3494C245.861 50.5343 245.536 51.9935 244.714 53.727L243.711 55.8419C242.779 57.8065 242.34 58.9997 242.394 59.4213C242.422 59.6608 242.544 60.0296 242.761 60.5276L242.596 60.8743L235.73 57.6354C235.73 56.5608 236.268 54.891 237.343 52.6258L238.132 50.9618C238.791 49.5749 239.073 48.5625 238.979 47.9245C238.91 47.2973 238.481 46.7983 237.695 46.4276L235.996 45.626L231.292 55.5416L224.842 52.4989ZM240.832 35.4331L238.069 41.2576L239.352 41.8629C241.155 42.7135 242.523 42.1565 243.454 40.1919C244.364 38.2735 243.907 36.8835 242.08 36.022L240.832 35.4331Z" fill="#FAF8F8" fill-opacity="0.07"/>
<path d="M308.804 191.68L335.867 195.921L334.114 206.942C333.327 211.89 330.532 213.988 325.731 213.236C321.916 212.638 320.012 210.761 320.023 207.606L319.947 207.594C319.534 209.211 318.769 210.269 317.655 210.767C316.565 211.269 315.072 211.372 313.177 211.075L310.865 210.712C308.717 210.376 307.448 210.293 307.058 210.465C306.836 210.56 306.516 210.781 306.097 211.129L305.718 211.071L306.912 203.572C307.944 203.268 309.699 203.31 312.175 203.698L313.995 203.983C315.51 204.221 316.562 204.204 317.149 203.933C317.732 203.689 318.092 203.137 318.228 202.279L318.524 200.423L307.683 198.724L308.804 191.68ZM329.667 202.17L323.3 201.171L323.076 202.573C322.763 204.541 323.681 205.695 325.828 206.032C327.925 206.36 329.133 205.527 329.45 203.532L329.667 202.17Z" fill="#FAF8F8" fill-opacity="0.07"/>
<path d="M282.429 69.1432L283.525 68.0671C284.603 67.0085 285.243 66.1635 285.449 65.5329C285.671 64.9201 285.533 64.3587 285.03 63.8487C284.295 63.1028 283.364 63.0684 282.236 63.7475C281.253 64.3548 279.383 66.0127 276.626 68.7218C273.868 71.431 272.178 73.2708 271.553 74.2427C270.855 75.3576 270.873 76.2889 271.609 77.0354C272.379 77.8178 273.511 77.6542 275.006 76.5446C275.406 76.2583 276.373 75.3623 277.908 73.8552L282.746 78.7694L281.295 80.1957C276.766 84.645 272.387 84.7213 268.157 80.4255C265.433 77.6585 264.372 75.0124 264.975 72.4867C265.503 70.2135 267.665 67.2109 271.464 63.4795C275.226 59.7837 278.348 57.7008 280.832 57.2309C283.35 56.7613 285.901 57.8371 288.482 60.4582C292.622 64.6629 292.628 68.7927 288.502 72.8473L287.269 74.0581L282.429 69.1432Z" fill="#FAF8F8" fill-opacity="0.07"/>
<path d="M327.424 183.024L328.957 183.104C330.465 183.182 331.521 183.085 332.125 182.809C332.729 182.559 333.049 182.076 333.089 181.362C333.145 180.315 332.543 179.606 331.283 179.233C330.172 178.919 327.688 178.661 323.83 178.459C319.972 178.257 317.474 178.254 316.336 178.451C315.042 178.69 314.366 179.333 314.309 180.379C314.25 181.477 315.132 182.202 316.958 182.553C317.439 182.655 318.753 182.762 320.899 182.874L320.524 189.765L318.492 189.659C312.156 189.328 309.152 186.15 309.48 180.127C309.692 176.248 310.934 173.676 313.206 172.413C315.242 171.265 318.916 170.83 324.23 171.108C329.494 171.383 333.134 172.278 335.153 173.791C337.196 175.331 338.117 177.939 337.917 181.614C337.595 187.51 334.548 190.307 328.774 190.005L327.05 189.914L327.424 183.024Z" fill="#FAF8F8" fill-opacity="0.07"/>
<path d="M106.548 62.2169L94.5841 37.6167L104.633 32.7257C109.144 30.5294 112.461 31.6134 114.583 35.9776C116.27 39.446 115.816 42.0819 113.22 43.8853L113.254 43.9543C114.816 43.3637 116.121 43.3822 117.166 44.0097C118.2 44.6142 119.136 45.7777 119.974 47.5004L120.996 49.6021C121.946 51.5545 122.602 52.6411 122.966 52.8618C123.17 52.9896 123.535 53.1246 124.06 53.2669L124.227 53.6114L117.39 56.9393C116.552 56.2682 115.585 54.8071 114.49 52.5561L113.686 50.9023C113.015 49.5241 112.402 48.6723 111.845 48.3468C111.311 48.0101 110.653 48.0323 109.87 48.4133L108.178 49.2368L112.97 59.0907L106.548 62.2169ZM103.252 39.1073L106.067 44.8956L107.345 44.2738C109.141 43.3997 109.563 41.9865 108.614 40.0342C107.687 38.1277 106.313 37.617 104.495 38.5023L103.252 39.1073Z" fill="#FAF8F8" fill-opacity="0.07"/>
<path d="M46.6937 216.688L19.7975 221.989L17.657 211.045C16.6959 206.13 18.601 203.203 23.3725 202.262C27.1645 201.515 29.5983 202.624 30.6737 205.588L30.7491 205.574C30.581 203.914 30.9355 202.659 31.8125 201.809C32.6644 200.964 34.0321 200.356 35.9156 199.986L38.2135 199.532C40.348 199.111 41.5691 198.754 41.8765 198.458C42.0529 198.294 42.2777 197.976 42.5508 197.505L42.9275 197.431L44.384 204.878C43.5179 205.517 41.8544 206.08 39.3933 206.565L37.5852 206.922C36.0784 207.218 35.0956 207.594 34.6369 208.049C34.1733 208.479 34.0248 209.121 34.1916 209.973L34.5519 211.816L45.3255 209.692L46.6937 216.688ZM23.4771 213.999L29.8056 212.752L29.5334 211.36C29.1509 209.404 27.8923 208.636 25.7577 209.057C23.6734 209.468 22.8249 210.664 23.2123 212.645L23.4771 213.999Z" fill="#FAF8F8" fill-opacity="0.07"/>
<path d="M130.488 32.511L130.023 31.0504C129.566 29.6142 129.103 28.6628 128.632 28.1963C128.185 27.722 127.621 27.5939 126.938 27.8119C125.938 28.1311 125.485 28.9459 125.579 30.2566C125.677 31.4055 126.31 33.8179 127.479 37.4937C128.649 41.1695 129.525 43.504 130.11 44.4973C130.79 45.621 131.63 46.0233 132.629 45.7041C133.678 45.3693 134.046 44.2867 133.731 42.4562C133.658 41.9703 133.296 40.7049 132.645 38.6601L139.23 36.5582L139.845 38.4935C141.766 44.5306 139.848 48.4678 134.093 50.305C130.386 51.4883 127.541 51.2434 125.558 49.5702C123.767 48.0772 122.066 44.7991 120.455 39.7357C118.86 34.721 118.416 31.0015 119.122 28.5773C119.846 26.1208 121.963 24.3321 125.474 23.211C131.108 21.4127 134.8 23.2644 136.55 28.7659L137.072 30.4091L130.488 32.511Z" fill="#FAF8F8" fill-opacity="0.07"/>
<path d="M91.4715 73.1948L75.0812 51.2931L88.0924 41.5675L91.5817 46.2301L84.2924 51.6792L87.0925 55.4215L93.9212 50.3173L97.2727 54.7959L90.444 59.9001L93.7033 64.2561L101.27 58.5999L104.76 63.2626L91.4715 73.1948Z" fill="#FAF8F8" fill-opacity="0.07"/>
<path d="M304.994 212.174L331.219 220.059L326.51 235.587L320.927 233.908L323.566 225.209L319.085 223.86L316.614 232.01L311.251 230.399L313.722 222.249L308.507 220.68L305.768 229.711L300.185 228.033L304.994 212.174Z" fill="#FAF8F8" fill-opacity="0.07"/>
<path d="M303.363 240.454L318.546 252.051L315.346 257.649L297.495 250.716L297.457 250.783L312.965 261.813L309.536 267.811L288.07 250.211L291.955 243.414L309.13 250.447L309.167 250.38L294.356 239.215L298.242 232.418L324.355 241.888L320.927 247.885L303.4 240.387L303.363 240.454Z" fill="#FAF8F8" fill-opacity="0.07"/>
<path d="M41.9546 176.423L14.5558 175.932L14.8807 159.717L20.7134 159.822L20.5314 168.907L25.213 168.991L25.3835 160.481L30.986 160.582L30.8156 169.091L36.2646 169.188L36.4535 159.759L42.2863 159.864L41.9546 176.423Z" fill="#FAF8F8" fill-opacity="0.07"/>
<path d="M42.1293 196.178L14.7631 197.675L13.9091 181.483L19.735 181.165L20.2135 190.236L24.8895 189.981L24.4413 181.483L30.0372 181.176L30.4854 189.675L35.928 189.377L35.4314 179.96L41.2572 179.642L42.1293 196.178Z" fill="#FAF8F8" fill-opacity="0.07"/>
<path d="M65.7036 66.7037L77.5061 79.0633L78.5345 78.0828C79.4052 77.2534 79.6651 76.2831 79.3118 75.172C79.043 74.3343 78.3885 73.3526 77.3481 72.2269C79.0933 74.1279 78.2723 73.3054 74.8846 69.758C71.4974 66.2106 70.7137 65.3523 72.5328 67.1832C71.4552 66.0925 70.5044 65.3928 69.6798 65.0851C68.5855 64.6813 67.6034 64.8938 66.7321 65.7239L65.7036 66.7037ZM75.8814 87.7033L56.9871 67.9177L64.4926 60.7656C67.1798 58.2049 69.9303 57.4896 72.744 58.6195C74.6063 59.3846 77.1 61.4021 80.2224 64.6722C83.3448 67.9422 85.2447 70.5247 85.9221 72.4202C86.9193 75.2801 86.0739 77.9909 83.3867 80.552L75.8814 87.7033Z" fill="#FAF8F8" fill-opacity="0.07"/>
<path d="M62.1357 105.775L40.4218 89.1236L45.2916 82.7954L61.4822 89.4061L61.529 89.3448L48.1479 79.0834L52.2217 73.789L73.9356 90.4418L69.1593 96.6481L52.8448 90.1359L52.7979 90.1965L66.2096 100.482L62.1357 105.775Z" fill="#FAF8F8" fill-opacity="0.07"/>
<path d="M333.923 144.109L307.34 150.806L305.402 143.074L320.667 134.487L320.648 134.413L304.266 138.54L302.645 132.072L329.23 125.375L331.13 132.958L315.865 141.704L315.883 141.778L332.303 137.642L333.923 144.109Z" fill="#FAF8F8" fill-opacity="0.07"/>
<path d="M165.979 43.3813L166.063 16.0091L174.047 16.0172L178.601 32.8899L178.677 32.8899L178.729 16.0219L185.407 16.0286L185.323 43.4008L177.493 43.3929L172.786 26.4818L172.71 26.4817L172.657 43.3881L165.979 43.3813Z" fill="#FAF8F8" fill-opacity="0.07"/>
<path d="M60.4581 277.492C64.6974 277.467 68.1218 274.169 68.1062 270.128C68.0906 266.086 64.6409 262.829 60.4016 262.854C56.1621 262.879 52.738 266.177 52.7536 270.218C52.7693 274.26 56.2187 277.517 60.4581 277.492Z" fill="#FEFEFE" fill-opacity="0.05"/>
<path d="M291.433 276.124C295.673 276.099 299.097 272.802 299.081 268.76C299.066 264.718 295.617 261.462 291.377 261.487C287.137 261.512 283.714 264.809 283.729 268.851C283.745 272.893 287.194 276.149 291.433 276.124Z" fill="#FEFEFE" fill-opacity="0.05"/>
<path d="M35.496 138.238C39.7354 138.213 43.1595 134.916 43.1439 130.874C43.1282 126.832 39.6788 123.576 35.4394 123.601C31.1999 123.626 27.7759 126.923 27.7915 130.965C27.8071 135.007 31.2565 138.264 35.496 138.238Z" fill="#FEFEFE" fill-opacity="0.05"/>
<path d="M322.415 167.208C326.654 167.183 330.078 163.886 330.063 159.844C330.047 155.802 326.597 152.545 322.358 152.57C318.119 152.595 314.695 155.893 314.71 159.935C314.726 163.976 318.175 167.233 322.415 167.208Z" fill="#FEFEFE" fill-opacity="0.05"/>
<path d="M89.0773 279.762L83.5381 290.946L71.6833 293.108L79.7407 301.424L78.3963 314.675L89.1918 309.383L100.377 314.545L98.5816 301.312L105.876 292.905L95.0519 290.878L89.0773 279.762Z" fill="#FAF8F8" fill-opacity="0.07"/>
<path d="M263.532 279.077L257.993 290.262L246.138 292.423L254.195 300.74L252.85 313.99L263.646 308.699L274.831 313.86L273.036 300.628L280.33 292.22L269.507 290.194L263.532 279.077Z" fill="#FAF8F8" fill-opacity="0.07"/>
<path d="M221.046 300.239L215.507 311.423L203.652 313.585L211.709 321.901L210.365 335.152L221.161 329.861L232.346 335.022L230.55 321.79L237.845 313.382L227.021 311.355L221.046 300.239Z" fill="#FAF8F8" fill-opacity="0.07"/>
<path d="M176.419 308.867L170.88 320.052L159.025 322.213L167.082 330.529L165.737 343.78L176.533 338.489L187.718 343.65L185.923 330.418L193.217 322.011L182.393 319.984L176.419 308.867Z" fill="#FAF8F8" fill-opacity="0.07"/>
<path d="M131.726 300.768L126.187 311.952L114.332 314.114L122.389 322.43L121.045 335.681L131.841 330.39L143.026 335.551L141.23 322.318L148.525 313.911L137.701 311.884L131.726 300.768Z" fill="#FAF8F8" fill-opacity="0.07"/>
<path d="M201.35 73.3904L193.078 80.0544L193.179 109.954C193.197 115.447 193.025 119.398 192.663 121.806C192.332 124.214 191.643 126.193 190.598 127.742C187.955 131.706 182.802 133.709 175.14 133.75C167.047 133.795 161.387 131.851 158.161 127.919C155.586 124.816 154.284 118.853 154.254 110.027L154.149 79.2944L147.828 73.6818L169.7 73.5628L163.419 79.7531L163.521 110.024L163.638 117.15C163.654 121.748 164.623 125.013 166.545 126.947C168.467 128.85 171.698 129.789 176.239 129.764C181.245 129.737 184.684 128.252 186.558 125.311C188.064 122.927 188.803 117.831 188.777 110.025L188.861 80.0775L181.609 73.4979L201.35 73.3904ZM202.936 76.5294L196.652 81.7939L196.749 110.537C196.781 119.948 196.061 126.092 194.587 128.97C191.58 134.788 185.674 137.72 176.869 137.768C169.269 137.81 163.547 135.943 159.704 132.168L160.075 132.352L161.701 133.268C165.508 135.47 170.393 136.554 176.355 136.522C184.882 136.474 190.526 133.759 193.288 128.376C194.761 125.467 195.483 119.631 195.453 110.868L195.353 81.2456L202.238 75.5617L202.936 76.5294ZM171.655 76.0522L167.129 80.6588L167.246 115.048L167.21 118.242L168.667 124.112C169.382 125.281 170.73 126.693 172.713 128.348L172.807 128.765C170.208 127.73 168.412 126.212 167.416 124.212C166.421 122.212 165.916 119.113 165.902 114.916L165.784 80.2029L171.003 75.0836L171.655 76.0522Z" fill="white" fill-opacity="0.1"/>
<path d="M278.042 144.109L277.536 144.991C274.772 149.85 272.378 154.708 270.356 159.563L269.943 160.63L269.339 160.31C268.613 155.623 266.947 151.914 264.343 149.182C261.738 146.45 258.599 145.093 254.922 145.114C250.999 145.135 247.73 146.866 245.116 150.305C241.825 154.581 240.196 161.81 240.231 171.993C240.26 180.756 241.798 187.613 244.842 192.565C247.917 197.516 252.158 199.977 257.564 199.948C261.889 199.924 265.329 198.47 267.883 195.587C270.468 192.672 271.999 188.529 272.475 183.157C272.594 181.861 273.117 181.21 274.044 181.205C275.249 181.198 275.854 182.197 275.861 184.203C275.871 187.196 275.202 190.301 273.854 193.517C271.004 200.322 265.085 203.749 256.095 203.797C248.062 203.841 241.673 201.068 236.928 195.477C232.182 189.857 229.793 182.248 229.76 172.651C229.73 163.796 232.161 156.361 237.053 150.349C241.945 144.335 248.036 141.309 255.327 141.27C258.786 141.251 262.728 142.078 267.151 143.752C269.471 144.633 271.388 145.07 272.902 145.062C274.539 145.053 276.005 144.598 277.299 143.696L278.042 144.109ZM264.631 152.189C261.812 149.951 259.152 148.839 256.649 148.854C248.649 148.897 244.673 156.54 244.725 171.783C244.748 178.726 245.695 184.507 247.565 189.124C249.434 193.712 252.053 196.676 255.426 198.015L255.428 198.478C251.78 197.757 248.851 194.981 246.641 190.148C244.462 185.285 243.36 179.135 243.335 171.698C243.281 155.745 247.641 147.745 256.414 147.697C259.38 147.681 262.118 148.978 264.629 151.587L264.631 152.189ZM279.846 183.904C279.378 191.559 277.25 197.403 273.464 201.434C269.708 205.436 264.432 207.455 257.636 207.492C252.477 207.52 247.667 205.957 243.208 202.802L243.207 202.433C247.17 205.004 251.948 206.273 257.539 206.243C263.655 206.209 268.638 204.223 272.487 200.283C274.365 198.359 275.747 196.207 276.636 193.827C277.523 191.446 278.115 188.295 278.411 184.374L278.5 183.31L279.846 183.904ZM281.433 146.312L280.926 147.194C277.578 152.951 274.908 158.196 272.916 162.928L271.663 162.333L272.169 161.173C273.703 157.925 275.053 155.233 276.219 153.097L279.904 146.505L280.365 145.669L281.433 146.312Z" fill="white" fill-opacity="0.1"/>
<path d="M113.05 144.081C111.452 146.25 110.177 148.509 109.227 150.859C107.358 155.498 106.117 158.344 105.502 159.396L105.272 159.675C105.147 159.337 105.054 159.075 104.991 158.89C104.117 156.118 103.4 154.193 102.84 153.116C102.28 152.039 101.443 151.01 100.327 150.029C97.5073 147.545 94.3055 146.312 90.722 146.331C87.4166 146.35 84.6701 147.29 82.4832 149.153C80.2956 150.985 79.2068 153.291 79.2163 156.068C79.2345 161.252 83.1544 164.763 90.9762 166.603L98.8136 168.458C109.975 171.082 115.571 176.93 115.602 186.002C115.619 191.062 113.718 195.331 109.9 198.808C106.111 202.253 101.406 203.991 95.7833 204.022C92.2616 204.042 88.3208 203.523 83.9615 202.467L78.5348 201.153C76.3399 200.641 74.5319 200.389 73.1108 200.397C71.2265 200.407 69.2822 201.019 67.2779 202.233L66.9052 201.588C70.7162 195.797 73.3858 190.289 74.9127 185.066L75.747 185.293C76.4121 190.134 78.3714 193.888 81.6249 196.555C84.8771 199.222 89.1289 200.541 94.381 200.511C98.521 200.489 101.808 199.515 104.242 197.589C106.676 195.662 107.887 193.079 107.876 189.839C107.864 186.106 106.154 183.03 102.748 180.61C100.301 178.896 95.2911 177.318 87.7177 175.878C81.8748 174.768 77.6358 172.894 75.0013 170.254C72.3663 167.615 71.0412 163.934 71.0249 159.214C71.0085 154.338 72.741 150.38 76.2211 147.336C79.7323 144.262 84.299 142.71 89.9225 142.68C93.5365 142.66 97.7557 143.285 102.579 144.554C104.836 145.159 106.506 145.459 107.586 145.453C109.101 145.445 110.752 144.911 112.54 143.852L113.05 144.081ZM115.93 146.009L115.515 146.706C114.255 148.841 113.182 150.884 112.292 152.833C110.145 157.38 108.933 159.918 108.657 160.443L108.427 160.769L107.312 160.312L107.496 159.895C108.386 157.853 109.674 155.193 111.363 151.912L114.493 145.785L114.723 145.414L115.93 146.009ZM102.43 155.293C99.02 151.701 95.3678 149.916 91.4759 149.937C89.1278 149.951 87.1839 150.64 85.6439 152.006C84.104 153.372 83.3371 155.105 83.3446 157.203C83.3522 159.486 84.9202 161.822 88.0485 164.212L88.4203 164.441L88.1899 164.814C84.1057 163.015 82.0579 160.387 82.0458 156.932C82.0377 154.525 82.8966 152.561 84.621 151.04C86.3455 149.518 88.599 148.75 91.379 148.735C94.0355 148.721 96.3546 149.278 98.3355 150.41C100.348 151.51 101.82 153.076 102.754 155.107L102.43 155.293ZM113.151 173.61C117.363 176.766 119.478 181.105 119.497 186.628C119.516 192.522 117.247 197.533 112.689 201.662C108.131 205.759 102.577 207.827 96.0282 207.863C92.6916 207.881 89.6784 207.558 86.9887 206.893L79.568 205.129C77.8373 204.706 75.9821 204.5 74.0049 204.512C72.2447 204.52 70.6236 204.884 69.1435 205.602L68.5823 204.262C70.1863 203.514 71.8223 203.134 73.4909 203.125C75.3447 203.115 77.4613 203.381 79.8426 203.924L86.9843 205.598C89.828 206.261 92.8268 206.584 95.977 206.567C102.156 206.533 107.401 204.545 111.712 200.603C116.055 196.63 118.217 191.85 118.198 186.266C118.182 181.544 116.5 177.419 113.152 173.888L113.151 173.61ZM80.2021 187.12C81.3643 192.668 84.4356 196.586 89.4173 198.872L89.4187 199.243C83.6672 197.608 80.1781 193.647 78.952 187.358L80.2021 187.12ZM74.3586 172.156L75.9371 173.027C76.9632 174.841 79.9491 176.337 84.8967 177.514L92.363 179.324C97.4336 180.562 100.805 181.639 102.476 182.556C104.178 183.441 105.388 184.808 106.105 186.655L105.781 186.842C104.386 185.245 102.868 184.08 101.228 183.349C99.6188 182.617 96.5112 181.724 91.9045 180.669C85.2259 179.162 80.7423 177.86 78.4523 176.762C76.1628 175.633 74.798 174.097 74.3586 172.156Z" fill="white" fill-opacity="0.1"/>
<path d="M175.86 171.258L234.277 112.666C229.853 111.298 220.791 107.866 219.943 105.084C230.073 104.398 249.745 101.912 255.25 97.1624C255.736 96.3458 256.175 95.7878 256.541 95.4569C256.316 96.0553 255.874 96.6239 255.25 97.1624C252.805 101.261 249.162 111.867 247.614 132.8C245.044 129.679 240.036 122.18 240.575 117.159L181.49 176.754L225.276 221.103C226.675 221.909 231.911 222.737 241.669 219.612L268.985 245.588C265.041 248.168 254.983 251.805 246.306 245.722C248.066 249.894 250.411 260.475 245.7 269.424L219.777 242.743C220.573 237.976 221.813 227.885 220.409 225.663L175.717 182.256L175.86 171.258Z" fill="white" fill-opacity="0.1"/>
<path d="M175.86 171.258L117.047 113.674C121.461 112.257 130.495 108.726 131.322 105.938C121.188 105.373 101.498 103.126 95.9556 98.4512C95.4626 97.6416 95.0191 97.0895 94.6507 96.7642C94.8805 97.3587 95.3271 97.9201 95.9556 98.4512C98.4322 102.513 102.156 113.053 103.866 133.925C106.413 130.78 111.361 123.238 110.784 118.233L170.326 177.007L126.885 221.784C125.493 222.603 120.263 223.492 110.481 220.49L83.3673 246.735C87.3315 249.262 97.4167 252.773 106.046 246.601C104.318 250.784 102.056 261.371 106.835 270.247L132.551 243.314C131.719 238.566 130.4 228.51 131.787 226.276L175.717 182.256L175.86 171.258Z" fill="white" fill-opacity="0.1"/>
<path d="M152.559 244.884L152.482 224.927L166.929 224.841L166.938 227.197L155.135 227.266L155.159 233.379L166.212 233.313L166.221 235.655L155.168 235.72L155.194 242.513L167.461 242.44L167.47 244.795L152.559 244.884ZM168.803 238.376L171.296 238.144C171.418 239.141 171.694 239.961 172.123 240.603C172.561 241.235 173.237 241.748 174.146 242.142C175.057 242.527 176.079 242.717 177.215 242.71C178.223 242.704 179.113 242.549 179.884 242.245C180.655 241.94 181.226 241.529 181.597 241.009C181.977 240.481 182.165 239.907 182.162 239.29C182.16 238.664 181.976 238.121 181.611 237.66C181.246 237.19 180.645 236.8 179.808 236.487C179.271 236.281 178.084 235.966 176.246 235.541C174.409 235.107 173.123 234.697 172.385 234.311C171.429 233.818 170.713 233.205 170.238 232.473C169.772 231.731 169.537 230.902 169.533 229.986C169.529 228.978 169.812 228.037 170.381 227.163C170.95 226.279 171.783 225.607 172.881 225.147C173.978 224.687 175.2 224.452 176.545 224.444C178.025 224.436 179.331 224.668 180.459 225.142C181.597 225.607 182.472 226.301 183.084 227.224C183.696 228.146 184.027 229.192 184.077 230.362L181.543 230.568C181.401 229.307 180.935 228.357 180.142 227.718C179.358 227.078 178.199 226.763 176.662 226.772C175.064 226.781 173.897 227.083 173.163 227.678C172.439 228.262 172.078 228.968 172.081 229.794C172.084 230.511 172.345 231.099 172.865 231.559C173.375 232.018 174.704 232.487 176.85 232.965C179.005 233.433 180.483 233.846 181.284 234.204C182.45 234.733 183.311 235.409 183.868 236.231C184.426 237.044 184.707 237.987 184.711 239.058C184.715 240.12 184.415 241.124 183.809 242.072C183.204 243.01 182.33 243.745 181.187 244.279C180.053 244.802 178.773 245.07 177.347 245.078C175.539 245.089 174.02 244.834 172.791 244.315C171.572 243.796 170.61 243.012 169.906 241.963C169.212 240.906 168.844 239.71 168.803 238.376ZM192.032 244.65L191.964 227.048L185.381 227.087L185.372 224.732L201.209 224.638L201.218 226.994L194.608 227.033L194.676 244.634L192.032 244.65ZM199.89 244.603L199.88 241.813L202.674 241.796L202.685 244.587L199.89 244.603Z" fill="white" fill-opacity="0.1"/>
<path d="M161.594 290.833L146.359 290.923L146.352 289.11L158.009 264.659L157.974 255.52L150.148 255.566L150.181 264.191L146.747 264.212L146.712 255.292C146.709 254.492 146.96 253.837 147.465 253.327C147.97 252.818 148.623 252.561 149.424 252.556L158.673 252.502C159.475 252.497 160.13 252.746 160.639 253.249C161.148 253.753 161.404 254.405 161.407 255.205L161.438 263.34C161.442 264.32 161.144 265.441 160.544 266.702L150.469 287.885L161.582 287.819L161.594 290.833ZM182.608 287.988C182.611 288.789 182.351 289.444 181.83 289.953C181.309 290.463 180.647 290.72 179.846 290.725L169.664 290.785C168.863 290.79 168.208 290.54 167.699 290.037C167.19 289.534 166.934 288.882 166.931 288.081L166.804 255.173C166.801 254.373 167.052 253.718 167.557 253.208C168.062 252.699 168.715 252.442 169.516 252.437L179.697 252.377C180.498 252.372 181.162 252.621 181.688 253.125C182.213 253.628 182.477 254.28 182.48 255.08L182.608 287.988ZM179.196 287.715L179.071 255.395L170.215 255.447L170.34 287.767L179.196 287.715ZM192.602 290.649L189.168 290.67L189.065 264.084L187.569 264.092L187.569 263.97L189.683 252.318L192.454 252.301L192.602 290.649ZM202.808 290.589L199.373 290.609L199.271 264.023L197.775 264.032L197.774 263.909L199.888 252.257L202.66 252.241L202.808 290.589Z" fill="white" fill-opacity="0.1"/>
</g>
<defs>
<clipPath id="clip0">
<rect width="350.307" height="349.892" fill="white" transform="matrix(0.999982 -0.00592159 0.00386559 0.999993 0 2.16943)"/>
</clipPath>
</defs>
</svg>
