<svg width="29" height="29" viewBox="0 0 29 29" fill="none" xmlns="http://www.w3.org/2000/svg">
<g clip-path="url(#clip0)">
<path d="M20.2237 7.40538C17.4307 7.40538 15.3471 6.1236 14.0101 3.59038C12.7454 6.09404 10.885 7.40538 8.55707 7.40538C8.35079 7.40538 8.15296 7.32343 8.0071 7.17757C7.86124 7.03171 7.7793 6.83388 7.7793 6.6276C7.7793 6.42132 7.86124 6.22349 8.0071 6.07763C8.15296 5.93176 8.35079 5.84982 8.55707 5.84982C10.6796 5.84982 12.2632 4.32771 13.2634 1.32626C13.3149 1.17122 13.4139 1.03633 13.5464 0.940741C13.6789 0.845147 13.8381 0.793701 14.0015 0.793701C14.1649 0.793701 14.3241 0.845148 14.4566 0.940741C14.5891 1.03633 14.6881 1.17122 14.7396 1.32626C15.7679 4.41171 17.5109 5.84982 20.2237 5.84982C20.43 5.84982 20.6279 5.93176 20.7737 6.07763C20.9196 6.22349 21.0015 6.42132 21.0015 6.6276C21.0015 6.83388 20.9196 7.03171 20.7737 7.17757C20.6279 7.32343 20.43 7.40538 20.2237 7.40538Z" fill="#292F33"/>
<path d="M11.4434 7.91405C14.0598 10.532 11.8307 12.5449 9.21269 15.1622C6.59547 17.7794 4.5818 20.0093 1.96458 17.3928C1.34206 16.7705 0.84823 16.0317 0.51131 15.2185C0.174389 14.4053 0.000976313 13.5337 0.000976342 12.6534C0.000976371 11.7732 0.174389 10.9016 0.51131 10.0884C0.84823 9.27521 1.34206 8.53635 1.96458 7.91405C2.58689 7.29152 3.32574 6.79769 4.13894 6.46077C4.95214 6.12385 5.82374 5.95044 6.70397 5.95044C7.5842 5.95044 8.45581 6.12385 9.269 6.46077C10.0822 6.79769 10.8211 7.29152 11.4434 7.91405Z" fill="#FFAC33"/>
<path d="M12.0896 8.93908C13.3216 10.1719 12.2825 13.206 9.7695 15.719C7.2565 18.232 4.22239 19.2719 2.98961 18.0383C1.75761 16.8063 2.79672 13.7714 5.30895 11.2584C7.82272 8.74619 10.8576 7.70708 12.0896 8.93908Z" fill="#BE1931"/>
<path d="M16.5597 7.91395C13.9441 10.532 16.1724 12.5448 18.7904 15.1621C21.4076 17.7793 23.4213 20.0092 26.0385 17.3927C27.2734 16.1312 27.9608 14.4335 27.9514 12.6681C27.942 10.9028 27.2365 9.21249 25.9883 7.96421C24.74 6.71592 23.0496 6.01048 21.2843 6.00107C19.519 5.99166 17.8212 6.67905 16.5597 7.91395Z" fill="#FFAC33"/>
<path d="M15.9139 8.93908C14.6811 10.1719 15.7203 13.206 18.2333 15.719C20.7455 18.232 23.7811 19.2719 25.0131 18.0383C26.2451 16.8063 25.206 13.7714 22.693 11.2584C20.1808 8.74619 17.1451 7.70708 15.9139 8.93908Z" fill="#BE1931"/>
<path d="M17.4317 14.5772C17.5923 14.448 17.7976 14.3879 18.0026 14.41C18.6769 14.4831 19.2455 14.718 19.6429 15.089C20.0637 15.4818 20.2706 16.0091 20.2138 16.5372C20.1135 17.4636 19.184 18.3145 17.5981 18.1433C16.9813 18.0772 16.7068 18.2756 16.6975 18.3697C16.6866 18.4638 16.9129 18.7166 17.5297 18.7835C18.204 18.8566 18.7726 19.0915 19.17 19.4625C19.5908 19.8552 19.7992 20.3826 19.7409 20.9107C19.6406 21.8378 18.7111 22.6879 17.1268 22.5176C16.6772 22.4693 16.44 22.5619 16.3397 22.6218C16.2596 22.6708 16.2277 22.7182 16.2246 22.7447C16.2152 22.838 16.4385 23.0908 17.0568 23.1577C17.2619 23.1798 17.4499 23.2826 17.5792 23.4433C17.7086 23.6041 17.7689 23.8096 17.7467 24.0148C17.7245 24.2199 17.6217 24.4079 17.461 24.5372C17.3003 24.6666 17.0947 24.7268 16.8896 24.7047C15.3052 24.5343 14.5772 23.5053 14.6776 22.5774C14.7779 21.6503 15.7073 20.8002 17.2932 20.9713C17.7428 21.0203 17.9785 20.927 18.0788 20.8671C18.1597 20.8189 18.1916 20.7715 18.1939 20.745C18.2048 20.6509 17.98 20.3981 17.3617 20.3312C15.7773 20.1601 15.0493 19.1319 15.1497 18.204C15.25 17.2769 16.1795 16.426 17.7638 16.5987C18.2133 16.6469 18.4506 16.5536 18.5509 16.4937C18.631 16.4455 18.6629 16.398 18.666 16.3716C18.6753 16.2775 18.4506 16.0247 17.8338 15.9578C17.6807 15.9412 17.5359 15.8795 17.4179 15.7806C17.2999 15.6816 17.2139 15.5499 17.1708 15.402C17.1278 15.2542 17.1296 15.0969 17.176 14.95C17.2224 14.8032 17.3114 14.6734 17.4317 14.5772Z" fill="#AA8DD8"/>
<path d="M11.8749 28.2715C10.3403 28.7047 9.28174 28.021 9.02974 27.1227C8.77774 26.2251 9.32374 25.0888 10.8575 24.6571C11.4564 24.4891 11.6361 24.2029 11.612 24.1119C11.5855 24.0194 11.2814 23.8692 10.6841 24.0372C9.1503 24.4697 8.09174 23.7852 7.83974 22.8869C7.58619 21.9886 8.13374 20.8538 9.6683 20.4221C10.2664 20.2534 10.4469 19.9664 10.4204 19.8754C10.3947 19.7851 10.0914 19.6335 9.4933 19.8015C9.39363 19.8339 9.28844 19.8458 9.18405 19.8365C9.07966 19.8273 8.97821 19.797 8.88581 19.7475C8.79341 19.6981 8.71196 19.6305 8.64634 19.5487C8.58073 19.467 8.5323 19.3729 8.50398 19.272C8.47566 19.1711 8.46803 19.0655 8.48154 18.9616C8.49505 18.8576 8.52942 18.7575 8.58259 18.6672C8.63577 18.5769 8.70664 18.4982 8.79097 18.436C8.87529 18.3738 8.97133 18.3292 9.0733 18.305C10.6063 17.8734 11.6656 18.5555 11.9192 19.4554C12.1712 20.3529 11.6244 21.4877 10.0899 21.9209C9.49097 22.0889 9.3113 22.3751 9.33774 22.4661C9.36263 22.5571 9.66597 22.7088 10.2633 22.5408C11.7986 22.1084 12.8564 22.7912 13.1092 23.6911C13.362 24.5879 12.8152 25.7227 11.2799 26.1559C10.6825 26.3231 10.5029 26.6117 10.5277 26.7011C10.5542 26.7929 10.8567 26.9438 11.4549 26.7766C11.6531 26.7209 11.8653 26.7462 12.0449 26.847C12.2244 26.9478 12.3566 27.1158 12.4123 27.314C12.468 27.5123 12.4427 27.7245 12.3419 27.9041C12.2411 28.0836 12.0731 28.2158 11.8749 28.2715Z" fill="#77B255"/>
<path d="M1.94596 22.9608C2.5903 22.9608 3.11263 22.4384 3.11263 21.7941C3.11263 21.1498 2.5903 20.6274 1.94596 20.6274C1.30163 20.6274 0.779297 21.1498 0.779297 21.7941C0.779297 22.4384 1.30163 22.9608 1.94596 22.9608Z" fill="#5C913B"/>
<path d="M5.44569 26.072C6.3048 26.072 7.00125 25.3756 7.00125 24.5165C7.00125 23.6574 6.3048 22.9609 5.44569 22.9609C4.58658 22.9609 3.89014 23.6574 3.89014 24.5165C3.89014 25.3756 4.58658 26.072 5.44569 26.072Z" fill="#9266CC"/>
<path d="M23.3349 22.9607C24.194 22.9607 24.8904 22.2643 24.8904 21.4052C24.8904 20.5461 24.194 19.8496 23.3349 19.8496C22.4757 19.8496 21.7793 20.5461 21.7793 21.4052C21.7793 22.2643 22.4757 22.9607 23.3349 22.9607Z" fill="#9266CC"/>
<path d="M19.8346 26.0719C20.479 26.0719 21.0013 25.5495 21.0013 24.9052C21.0013 24.2609 20.479 23.7385 19.8346 23.7385C19.1903 23.7385 18.668 24.2609 18.668 24.9052C18.668 25.5495 19.1903 26.0719 19.8346 26.0719Z" fill="#5C913B"/>
<path d="M13.6125 16.7386C14.2568 16.7386 14.7791 16.2163 14.7791 15.5719C14.7791 14.9276 14.2568 14.4053 13.6125 14.4053C12.9681 14.4053 12.4458 14.9276 12.4458 15.5719C12.4458 16.2163 12.9681 16.7386 13.6125 16.7386Z" fill="#5C913B"/>
<path d="M5.44569 19.8496C6.3048 19.8496 7.00125 19.1532 7.00125 18.2941C7.00125 17.435 6.3048 16.7385 5.44569 16.7385C4.58658 16.7385 3.89014 17.435 3.89014 18.2941C3.89014 19.1532 4.58658 19.8496 5.44569 19.8496Z" fill="#FFCC4D"/>
<path d="M21.3903 14.4054C22.0346 14.4054 22.557 13.883 22.557 13.2387C22.557 12.5944 22.0346 12.072 21.3903 12.072C20.746 12.072 20.2236 12.5944 20.2236 13.2387C20.2236 13.883 20.746 14.4054 21.3903 14.4054Z" fill="#FFCC4D"/>
<path d="M9.7238 12.8497C10.3681 12.8497 10.8905 12.3274 10.8905 11.683C10.8905 11.0387 10.3681 10.5164 9.7238 10.5164C9.07946 10.5164 8.55713 11.0387 8.55713 11.683C8.55713 12.3274 9.07946 12.8497 9.7238 12.8497Z" fill="#FFCC4D"/>
</g>
<defs>
<clipPath id="clip0">
<rect width="28" height="28" fill="white" transform="translate(0.00146484 0.405273)"/>
</clipPath>
</defs>
</svg>
