<svg width="25" height="18" viewBox="0 0 25 18" fill="none" xmlns="http://www.w3.org/2000/svg">
<path d="M24.2873 2.8075C24.1449 2.26486 23.867 1.77014 23.4813 1.37263C23.0957 0.975112 22.6158 0.688661 22.0893 0.5418C20.162 0 12.4053 0 12.4053 0C12.4053 0 4.6482 0.0164 2.7209 0.5582C2.19445 0.70507 1.71451 0.991536 1.32887 1.38907C0.943241 1.78661 0.665368 2.28134 0.522929 2.824C-0.0600336 6.3538 -0.286175 11.7324 0.538936 15.121C0.681391 15.6636 0.959269 16.1584 1.3449 16.5559C1.73054 16.9534 2.21047 17.2398 2.73691 17.3867C4.66421 17.9285 12.4211 17.9285 12.4211 17.9285C12.4211 17.9285 20.178 17.9285 22.1052 17.3867C22.6316 17.2399 23.1116 16.9534 23.4972 16.5559C23.8829 16.1584 24.1608 15.6637 24.3032 15.121C24.9181 11.5862 25.1076 6.211 24.2873 2.8076V2.8075Z" fill="#E31616"/>
</svg>
