<svg width="25" height="26" viewBox="0 0 25 26" fill="none" xmlns="http://www.w3.org/2000/svg">
<path d="M11.1607 12.6984C11.1607 13.0536 11.3018 13.3942 11.553 13.6454C11.8042 13.8965 12.1448 14.0377 12.5 14.0377C12.8552 14.0377 13.1958 13.8965 13.447 13.6454C13.6982 13.3942 13.8393 13.0536 13.8393 12.6984C13.8393 12.3432 13.6982 12.0025 13.447 11.7513C13.1958 11.5002 12.8552 11.3591 12.5 11.3591C12.1448 11.3591 11.8042 11.5002 11.553 11.7513C11.3018 12.0025 11.1607 12.3432 11.1607 12.6984ZM16.741 12.6984C16.741 13.0536 16.8821 13.3942 17.1333 13.6454C17.3844 13.8965 17.7251 14.0377 18.0803 14.0377C18.4355 14.0377 18.7761 13.8965 19.0273 13.6454C19.2785 13.3942 19.4196 13.0536 19.4196 12.6984C19.4196 12.3432 19.2785 12.0025 19.0273 11.7513C18.7761 11.5002 18.4355 11.3591 18.0803 11.3591C17.7251 11.3591 17.3844 11.5002 17.1333 11.7513C16.8821 12.0025 16.741 12.3432 16.741 12.6984ZM5.58045 12.6984C5.58045 13.0536 5.72155 13.3942 5.97271 13.6454C6.22387 13.8965 6.56452 14.0377 6.91971 14.0377C7.27491 14.0377 7.61556 13.8965 7.86672 13.6454C8.11788 13.3942 8.25898 13.0536 8.25898 12.6984C8.25898 12.3432 8.11788 12.0025 7.86672 11.7513C7.61556 11.5002 7.27491 11.3591 6.91971 11.3591C6.56452 11.3591 6.22387 11.5002 5.97271 11.7513C5.72155 12.0025 5.58045 12.3432 5.58045 12.6984ZM24.0289 7.85461C23.3983 6.35629 22.4943 5.01142 21.342 3.85629C20.1977 2.70784 18.8393 1.79497 17.3437 1.16935C15.8091 0.524815 14.1797 0.198364 12.5 0.198364H12.4442C10.7534 0.206735 9.11556 0.541556 7.5754 1.20004C6.0926 1.83207 4.74693 2.74657 3.61339 3.89256C2.47223 5.0449 1.57659 6.38419 0.957178 7.87694C0.315445 9.4227 -0.00821214 11.0661 0.000158292 12.757C0.00962595 14.6947 0.468042 16.6038 1.33943 18.3345V22.5756C1.33943 22.916 1.47465 23.2425 1.71535 23.4832C1.95604 23.7239 2.2825 23.8591 2.62289 23.8591H6.8667C8.59741 24.7305 10.5065 25.1889 12.4442 25.1984H12.5028C14.1741 25.1984 15.7952 24.8747 17.3214 24.2413C18.8094 23.6232 20.1628 22.7209 21.3057 21.5851C22.458 20.4439 23.3648 19.1102 23.9982 17.623C24.6567 16.0829 24.9915 14.445 24.9998 12.7542C25.0082 11.0549 24.679 9.40595 24.0289 7.85461ZM19.813 20.0756C17.8571 22.012 15.2622 23.0778 12.5 23.0778H12.4526C10.7701 23.0695 9.09882 22.6509 7.62283 21.8641L7.38846 21.7385H3.45994V17.81L3.33438 17.5756C2.54756 16.0996 2.12904 14.4283 2.12067 12.7458C2.10951 9.96399 3.17255 7.35238 5.12286 5.38531C7.07038 3.41823 9.67359 2.33006 12.4554 2.3189H12.5028C13.8979 2.3189 15.2511 2.58955 16.5262 3.12526C17.7706 3.64702 18.8866 4.39758 19.8465 5.3574C20.8035 6.31444 21.5568 7.4333 22.0786 8.67772C22.6199 9.96678 22.8905 11.334 22.8849 12.7458C22.8682 15.5248 21.7772 18.1281 19.813 20.0756Z" fill="#1C1C1C"/>
</svg>
